<?xml version="1.0" encoding="utf-8"?>
<!-- Generator: Adobe Illustrator 21.1.0, SVG Export Plug-In . SVG Version: 6.00 Build 0)  -->
<svg version="1.1" id="Layer_1" xmlns="http://www.w3.org/2000/svg" xmlns:xlink="http://www.w3.org/1999/xlink" x="0px" y="0px"
	 width="207.5px" height="31.8px" viewBox="0 0 207.5 31.8" style="enable-background:new 0 0 207.5 31.8;" xml:space="preserve">
<style type="text/css">
	.st0{fill:#6CC04A;}
	.st1{fill:#6FBF4A;}
	.st2{fill:#232323;}
</style>
<g>
	<path class="st0" d="M15.9,8.7L2,5.4C1.6,5.3,1.2,5.6,1.2,6l0.1,20.9c0,0.3,0.2,0.5,0.5,0.6l3.6,0.9l0,0L16,31.1v-8.8L15.9,8.7z"/>
	<path class="st1" d="M32.4,5.3L18.5,8.7l0.1,22.5l14.2-3.7c0.3-0.1,0.5-0.3,0.5-0.6l-0.1-21C33.2,5.5,32.8,5.2,32.4,5.3z"/>
</g>
<g>
	<g>
		<g>
			<path class="st2" d="M57.2,27.2V16.5c0-1.6-0.1-2.9-1.8-2.9c-1.2,0-2.7,0.7-3.4,1.2v8.9c0,0.5,0,0.6,0.5,0.7l1.6,0.2v2.6H45v-2.7
				l1.5-0.2c0.5-0.1,0.5-0.2,0.5-0.7v-9.7c0-0.4-0.1-0.6-0.4-0.7l-1.8-0.6l0.4-2.7H51l0.3,1.7l0.1,0.1c1.7-1.2,3.6-2.1,5.8-2.1
				c3.6,0,5,2,5,5.6v8.4c0,0.5,0,0.6,0.5,0.7l1.7,0.2v2.6L57.2,27.2z"/>
			<path class="st2" d="M65.7,18.7c0-5.5,2.9-9.1,8.9-9.1c6.1,0,8.5,3.6,8.5,8.7c0,5.6-2.8,9.3-8.9,9.3
				C68.2,27.6,65.7,23.9,65.7,18.7z M77.9,18.5c0-3.9-1.2-5.3-3.4-5.3c-2.2,0-3.6,1.4-3.6,5.3c0,4,1.3,5.6,3.5,5.6
				S77.9,22.6,77.9,18.5z"/>
			<path class="st2" d="M97,27.1V16.4c0-1.6-0.1-2.9-1.8-2.9c-1.2,0-2.7,0.7-3.4,1.2v8.9c0,0.5,0,0.6,0.5,0.7l1.6,0.2v2.6h-9.1v-2.7
				l1.5-0.2c0.5-0.1,0.5-0.2,0.5-0.7v-9.7c0-0.4-0.1-0.6-0.4-0.7l-1.8-0.6L85,9.9h5.8l0.3,1.7l0.1,0.1c1.7-1.2,3.6-2.1,5.8-2.1
				c3.6,0,5,2,5,5.6v8.4c0,0.5,0,0.6,0.5,0.7l1.7,0.2v2.6L97,27.1z"/>
			<path class="st2" d="M142.1,25.8c-1.5,0.9-3.9,1.6-6.3,1.6c-6,0-8.7-3.7-8.7-8.8c0-6.2,3.8-9.2,9.1-9.2c2.6,0,4.9,0.7,5.9,1.4V16
				l-3.5-0.2l-0.4-2.2c0-0.2-0.1-0.4-0.4-0.5c-0.4-0.1-1-0.2-1.7-0.2c-2,0-3.7,1.4-3.7,5.2c0,4.3,1.9,5.5,4.3,5.5
				c1.7,0,3.1-0.5,4.1-1L142.1,25.8z"/>
			<path class="st2" d="M157.4,26.9v-2.6l1.7-0.2c0.5-0.1,0.5-0.2,0.5-0.7v-9.7c0-0.4-0.1-0.6-0.4-0.7l-1.8-0.6l0.4-2.7h6.9v13.7
				c0,0.5,0,0.6,0.5,0.7l1.7,0.2v2.6H157.4z M161.7,7c-1.9,0-3-1.1-3-3s1.1-2.9,3-2.9s3,1,3,2.9S163.6,7,161.7,7z"/>
			<path class="st2" d="M168.1,18.4c0-5.5,2.9-9.1,8.9-9.1c6.1,0,8.5,3.6,8.5,8.7c0,5.6-2.8,9.3-8.9,9.3
				C170.6,27.3,168.1,23.6,168.1,18.4z M180.3,18.2c0-3.9-1.2-5.3-3.4-5.3s-3.6,1.4-3.6,5.3c0,4,1.3,5.6,3.5,5.6
				C179,23.8,180.3,22.3,180.3,18.2z"/>
			<path class="st2" d="M199.5,26.8V16.1c0-1.6-0.1-2.9-1.8-2.9c-1.2,0-2.7,0.7-3.4,1.2v8.9c0,0.5,0,0.6,0.5,0.7l1.6,0.2v2.6h-9.1
				v-2.7l1.5-0.2c0.5-0.1,0.5-0.2,0.5-0.7v-9.7c0-0.4-0.1-0.6-0.4-0.7l-1.8-0.6l0.4-2.7h5.8l0.3,1.7l0.1,0.1
				c1.7-1.2,3.6-2.1,5.8-2.1c3.6,0,5,2,5,5.6v8.4c0,0.5,0,0.6,0.5,0.7l1.7,0.2v2.6L199.5,26.8z"/>
		</g>
		<path class="st2" d="M118.9,27.1v-13c0-0.3-0.1-0.4-0.3-0.4h-5.3v9.8c0,0.6,0.1,0.6,0.6,0.7l2.3,0.3v2.6h-10.3v-2.6l1.8-0.2
			c0.6-0.1,0.6-0.2,0.6-0.8v-9.4c0-0.2,0-0.3-0.3-0.3h-2.2V10h2.5V8.3c0-4.9,2.8-6.5,8.2-6.5c3.9,0,6.7,0.6,7,4.7l-4.7,1.2
			c0-2.1-0.5-2.6-2.6-2.6c-2.2,0-3,0.7-3,2.6v2c0,0.3,0,0.3,0.4,0.3h10.2v13.7c0,0.5,0,0.6,0.5,0.7l1.7,0.2v2.6L118.9,27.1z"/>
	</g>
	<g>
		<path class="st2" d="M151,9.7h3.3v3.8h-3.4v8.1c0,0.4,0,0.7,0.1,1c0.1,0.2,0.2,0.4,0.3,0.6c0.1,0.1,0.3,0.2,0.4,0.3
			c0.2,0.1,0.4,0.1,0.6,0.1c0.4,0,0.8,0,1.1-0.1s0.6-0.2,0.9-0.3l1.1,2.8c-0.5,0.3-1.5,0.9-2.2,1.1s-1.5,0.3-2.4,0.3
			c-0.7,0-1.3-0.1-1.9-0.3c-0.6-0.2-1.1-0.6-1.6-1c-0.4-0.4-0.8-1-1.1-1.7s-0.4-1.5-0.4-2.4v-8.1c0-0.3,0-0.3-0.3-0.3h-2.1V9.8h2.4
			V5.4l5-1.3L151,9.7z"/>
	</g>
</g>
</svg>
